<?xml version="1.0" encoding="UTF-8"?>
<svg xmlns="http://www.w3.org/2000/svg" viewBox="0 0 1024 1024">
  <defs>
    <style>
      .cls-1 {
        fill: #70b3e0;
      }

      .cls-2 {
        fill: #fff;
      }
    </style>
  </defs>
  <g id="Layer_1">
    <rect class="cls-1" width="1024" height="1024"/>
  </g>
  <g id="Layer_2">
    <path class="cls-2" d="M93,78h164.61l63.48,279.5,63.03-279.5h164.51v459.35h-102.51V187.04l-78.98,350.31h-92.78l-78.84-350.31v350.31h-102.51V78Z"/>
    <path class="cls-2" d="M376.6,904.79h-95.96v-43.12c-14.31,17.72-28.75,30.33-43.31,37.85-14.56,7.52-32.45,11.28-53.66,11.28-28.28,0-50.47-8.4-66.54-25.19-16.08-16.79-24.12-42.65-24.12-77.58v-169.45h103.29v146.39c0,16.71,3.11,28.58,9.34,35.6,6.23,7.02,14.98,10.53,26.26,10.53,12.29,0,22.35-4.68,30.18-14.04,7.83-9.36,11.74-26.15,11.74-50.38v-128.09h102.78v266.21Z"/>
    <path class="cls-2" d="M445.94,149.98h102.67v754.81h-102.67V149.98Z"/>
    <path class="cls-2" d="M735.19,537.3v101.27h56.57v74.7h-56.57v94.31c0,11.34,1.09,18.85,3.28,22.51,3.37,5.67,9.26,8.51,17.68,8.51,7.58,0,18.18-2.17,31.82-6.5l7.58,70.43c-25.42,5.51-49.16,8.27-71.21,8.27-25.59,0-44.45-3.25-56.57-9.76-12.12-6.51-21.09-16.4-26.89-29.67-5.81-13.27-8.71-34.76-8.71-64.47v-93.63h-37.88v-74.7h37.88v-48.88l103.03-52.39Z"/>
    <path class="cls-2" d="M844.54,537.3h102.78v69.44h-102.78v-69.44ZM844.54,638.58h102.78v266.21h-102.78v-266.21Z"/>
    <rect class="cls-2" x="93" y="142.28" width="103.96" height="655.84"/>
  </g>
</svg>